<svg id="color" enable-background="new 0 0 24 24" height="512" viewBox="0 0 24 24" width="512" xmlns="http://www.w3.org/2000/svg"><path d="m18 7c-.256 0-.512-.098-.707-.293-.391-.391-.391-1.023 0-1.414l2.121-2.121c.391-.391 1.023-.391 1.414 0s.391 1.023 0 1.414l-2.121 2.121c-.195.195-.451.293-.707.293z" fill="#ffc107"/><path d="m23 13h-1.25c-.553 0-1-.448-1-1s.447-1 1-1h1.25c.553 0 1 .448 1 1s-.447 1-1 1z" fill="#ffc107"/><path d="m18.25 19.5h-12.5c-.414 0-.75-.336-.75-.75v-4.75c0-3.86 3.141-7 7-7s7 3.14 7 7v4.75c0 .414-.336.75-.75.75z" fill="#f44336"/><path d="m8 15c-.553 0-1-.448-1-1 0-2.757 2.243-5 5-5 .553 0 1 .448 1 1s-.447 1-1 1c-1.654 0-3 1.346-3 3 0 .552-.447 1-1 1z" fill="#fff"/><g fill="#ffc107"><path d="m12 5c-.553 0-1-.448-1-1v-3c0-.552.447-1 1-1s1 .448 1 1v3c0 .552-.447 1-1 1z"/><path d="m6 7c-.256 0-.512-.098-.707-.293l-2.121-2.121c-.391-.391-.391-1.023 0-1.414s1.023-.391 1.414 0l2.121 2.121c.391.391.391 1.023 0 1.414-.195.195-.451.293-.707.293z"/><path d="m2 13h-1c-.553 0-1-.448-1-1s.447-1 1-1h1c.553 0 1 .448 1 1s-.447 1-1 1z"/></g><path d="m22.25 24h-20.5c-.965 0-1.75-.785-1.75-1.75v-2.5c0-.965.785-1.75 1.75-1.75h20.5c.965 0 1.75.785 1.75 1.75v2.5c0 .965-.785 1.75-1.75 1.75z" fill="#607d8b"/><path d="m12 7c-3.859 0-7 3.14-7 7v4h7v-7c-1.654 0-3 1.346-3 3 0 .552-.447 1-1 1s-1-.448-1-1c0-2.757 2.243-5 5-5z" fill="#d43a2f"/><path d="m12 9c-2.757 0-5 2.243-5 5 0 .552.447 1 1 1s1-.448 1-1c0-1.654 1.346-3 3-3z" fill="#dedede"/><path d="m12 0c-.553 0-1 .448-1 1v3c0 .552.447 1 1 1z" fill="#dea806"/><path d="m3.879 2.879c-.256 0-.512.098-.707.293-.391.391-.391 1.023 0 1.414l2.121 2.121c.195.195.451.293.707.293s.512-.098.707-.293c.391-.391.391-1.023 0-1.414l-2.121-2.121c-.195-.195-.451-.293-.707-.293z" fill="#dea806"/><path d="m2 11h-1c-.553 0-1 .448-1 1 0 .552.447 1 1 1h1c.553 0 1-.448 1-1s-.447-1-1-1z" fill="#dea806"/><path d="m12 18h-7-3.25c-.965 0-1.75.785-1.75 1.75v2.5c0 .965.785 1.75 1.75 1.75h10.25z" fill="#546d79"/></svg>