<svg height="512pt" viewBox="-5 0 512 512.00099" width="512pt" xmlns="http://www.w3.org/2000/svg"><g fill="#f44545"><path d="m363.371094 453.320312c-24.957032 36.789063-65.746094 59.550782-114.457032 58.65625-102.988281-2.324218-164.769531-115.761718-112.644531-204.617187l100.078125-170.582031c4.832032-8.253906 14.472656-10.921875 22.414063-8.015625 3.8125 1.386719 7.230469 4.054687 9.554687 8.015625l100.078125 170.582031c28.582031 48.714844 22.914063 104.828125-5.023437 145.960937zm0 0"/><path d="m496.328125 154.667969c-11.433594 26.285156-36.792969 44.421875-68.941406 43.628906-55.0625-1.71875-87.742188-62.5-59.867188-110.019531l46.421875-79.132813c4.835938-8.242187 14.476563-10.921875 22.414063-8.003906 3.816406 1.375 7.242187 4.042969 9.558593 8.003906l46.421876 79.132813c12.703124 21.652344 12.828124 46.070312 3.992187 66.390625zm0 0"/><path d="m124.398438 232.800781c-8.976563 24.132813-31.488282 42.003907-60.148438 42.003907-50.367188 0-80.234375-54.898438-55.269531-97.453126l41.109375-70.078124c4.628906-7.886719 14.183594-10.023438 21.476562-6.40625 2.71875 1.332031 5.117188 3.480468 6.835938 6.40625l41.109375 70.078124c10.566406 18.007813 11.304687 38.160157 4.886719 55.449219zm0 0"/></g><path d="m363.371094 453.320312c-19.164063 11.824219-41.847656 19.003907-66.980469 19.578126-106.378906 2.929687-173-113.386719-119.484375-204.617188l81.855469-139.519531c3.8125 1.386719 7.230469 4.054687 9.554687 8.015625l100.078125 170.582031c28.582031 48.714844 22.914063 104.828125-5.023437 145.960937zm0 0" fill="#fb5858"/><path d="m496.328125 154.667969c-7.148437 2.699219-14.933594 4.292969-23.230469 4.550781-.832031.023438-1.6875.042969-2.53125.042969-.855468 0-1.699218-.019531-2.542968-.042969-55.058594-1.71875-87.75-62.5-59.863282-110.007812l28.195313-48.070313c3.816406 1.375 7.242187 4.042969 9.558593 8.003906l46.421876 79.132813c12.703124 21.652344 12.828124 46.070312 3.992187 66.390625zm0 0" fill="#fb5858"/><path d="m124.398438 232.800781c-5.398438 1.699219-11.179688 2.707031-17.265626 2.894531-.742187.023438-1.492187.035157-2.25.035157-.75 0-1.503906-.011719-2.242187-.035157-48.757813-1.519531-77.707031-55.339843-53.019531-97.417968l21.945312-37.410156c2.71875 1.332031 5.117188 3.480468 6.835938 6.40625l41.109375 70.078124c10.566406 18.007813 11.304687 38.160157 4.886719 55.449219zm0 0" fill="#fb5858"/></svg>