<svg width="22" height="34" viewBox="0 0 22 34" fill="none" xmlns="http://www.w3.org/2000/svg">
<path d="M21.6667 27.8333C21.6667 28.9384 21.2277 29.9982 20.4463 30.7796C19.6649 31.561 18.6051 32 17.5 32C16.3949 32 15.3351 31.561 14.5537 30.7796C13.7723 29.9982 13.3333 28.9384 13.3333 27.8333C13.3333 26.1167 14.3667 24.65 15.8333 24.0167V7H8.33333V9.25C10.3667 10.2167 11.6667 12.25 11.6667 14.5V33.6667H0V14.5C0 12.25 1.3 10.2167 3.33333 9.25V7H0V3.66667H3.33333V2.83334C3.33333 2.17029 3.59673 1.53441 4.06557 1.06557C4.53441 0.596728 5.17029 0.333336 5.83333 0.333336C6.49638 0.333336 7.13226 0.596728 7.6011 1.06557C8.06994 1.53441 8.33333 2.17029 8.33333 2.83334V3.66667H15.8333C16.7174 3.66667 17.5652 4.01786 18.1904 4.64298C18.8155 5.2681 19.1667 6.11595 19.1667 7V24.0167C20.6333 24.65 21.6667 26.1167 21.6667 27.8333Z" fill="#878787"/>
</svg>
