<svg height="512" viewBox="0 0 59 59" width="512" xmlns="http://www.w3.org/2000/svg"><g id="Page-1" fill="none" fill-rule="evenodd"><g id="044---Fruity-Drink" fill-rule="nonzero" transform="translate(-1)"><path id="Shape" d="m14.3 6.06.01.01c1.4745992.07259827 2.8689722.69311209 3.91 1.74 1.5727163 1.77877493 2.7124502 3.8973794 3.33 6.19l-5.15 5.74c-2.4698268-.5850992-4.7573196-1.7700617-6.66-3.45-1.05022677-1.0387233-1.6713488-2.434463-1.74-3.91l1.38-4.92z" fill="#e64c3c"/><path id="Shape" d="m15.77 2.1c.0126838 1.44433187-.4989571 2.84423828-1.44 3.94-.01.01-.02.02-.03.02-1.76 1.74-4.92 1.4-4.92 1.4s-.34-3.2 1.42-4.95c1.0957617-.94104287 2.4956681-1.45268379 3.94-1.44.2762584-.01050054.5443883.09464119.7398736.29012643.1954852.19548523.3006269.46361519.2901264.73987357z" fill="#4fba6f"/><path id="Shape" d="m8 12.38-.03.03c-1.09654639.9385494-2.4967368 1.4467403-3.94 1.43-.27625838.0105005-.54438834-.0946412-.73987357-.2901264-.19548524-.1954853-.30062697-.4636152-.29012643-.7398736-.01746469-1.4451525.49477382-2.84669395 1.44-3.94 1.75-1.76 4.94-1.41 4.94-1.41s.35 3.15-1.38 4.92z" fill="#4fba6f"/><path id="Shape" d="m9.385 8.461c-.26932771.00049973-.52747074-.10766076-.716-.3-3.258-3.346-4.656-3.597-4.669-3.598-.26107242-.00145135-.51041642-.10862306-.69112209-.29705442-.18070567-.18843135-.27735104-.44204105-.26787791-.70294558.01842432-.56046905.48024319-1.00409908 1.041-1 .452 0 2.225.3 6.02 4.2.2822166.28791523.3639371.71714258.2072617 1.08861833-.1566753.37147574-.52109912.61253519-.9242617.61138167z" fill="#4c8056"/><circle id="Oval" cx="16" cy="11" fill="#f0c419" r="1"/><circle id="Oval" cx="13" cy="14" fill="#f0c419" r="1"/><path id="Shape" d="m20.69 57.68c-1.5438291 1.1321865-3.4979081 1.5506578-5.37 1.15-.4648755-.1215602-.9119608-.3030836-1.33-.54-.422352.2352765-.872527.4166903-1.34.54-4.29 1.1-9.22-3.18-11.01-9.58-1.79-6.4.26-12.48 4.56-13.58 1.81478888-.4023206 3.71507115-.0171774 5.23 1.06 1.5594669.9900557 3.5505331.9900557 5.11 0 .5239074-.3319743 1.0800761-.6100586 1.66-.83l3.8 10.1c.02.16-1.38 11.54-1.31 11.68z" fill="#e64c3c"/><path id="Shape" d="m5.5 49.177c-.44891512-.0001881-.84269078-.2995066-.963-.732-1.023-3.672-.42-6.655.486-8.222.38766547-.7894092 1.08197101-1.385406 1.921-1.649.34619036-.0893164.71373317.0128422.96417862.2679936.25044544.2551515.34574491.6245322.25.969-.09574491.3444679-.36798826.61169-.71417862.7010064-.30583649.1483534-.54923177.4002516-.687.711-.9326407 2.1128191-1.03651751 4.4991301-.291 6.685.08426526.3017023.02228759.6254579-.1674483.8747072s-.48530398.395189-.7985517.3942928z" fill="#fff"/><path id="Shape" d="m14.58 34.29c-.36 1.43-2.68 2.09-5.2 1.47-1.74-.43-4.26-2.42-5.64-3.6-.19659547-.164179-.28103703-.4269142-.21690552-.6748894.0641315-.2479751.2653634-.4368292.51690552-.4851106 1.76-.36 4.89-.87 6.63-.44 2.52.62 4.27 2.29 3.91 3.73z" fill="#4fba6f"/><path id="Shape" d="m43.25 57.85c-.3313789.7000407-1.0354922 1.1474055-1.81 1.15h-18.88c-.8412345.004404-1.592443-.5258609-1.87-1.32-.065565-.1455006-.1061334-.3010128-.12-.46l-2.37-21.32-1.38-12.44 3.18 1.59c2.5178251 1.2600171 5.4821749 1.2600171 8 0 2.5158686-1.2533919 5.4741314-1.2533919 7.99 0l.01.01c2.5166743 1.2499632 5.4733257 1.2499632 7.99 0l3.19-1.6-1.87 16.83z" fill="#f29c1f"/><path id="Shape" d="m47.99 16.22-.81 7.24-3.19 1.6c-2.5166743 1.2499632-5.4733257 1.2499632-7.99 0l-.01-.01c-2.5158686-1.2533919-5.4741314-1.2533919-7.99 0-2.5178251 1.2600171-5.4821749 1.2600171-8 0l-3.18-1.59h-.01l-.41-3.72-.39-3.52c-.0609714-.565307.1209419-1.129918.5004619-1.5533021.37952-.4233842.9209534-.6657227 1.4895381-.6666979h28c.5685847.0009752 1.1100181.2433137 1.4895381.6666979.37952.4233841.5614333.9879951.5004619 1.5533021z" fill="#9fc9d3"/><path id="Shape" d="m25 55c-.3272256.0000441-.6337714-.1600111-.8207668-.4285429s-.2307805-.6115636-.1172332-.9184571l17-46c.0708006-.19081037.1981368-.35547527.365-.472l10-7c.4520489-.29636803 1.0577858-.17987063 1.3676555.26303221.3098698.44290285.2116982 1.05187836-.2216555 1.37496779l-9.743 6.821-16.892 45.707c-.1452211.3925009-.5194954.6530564-.938.653z" fill="#ff5364"/><g fill="#d25627"><circle id="Oval" cx="24.5" cy="32.5" r="2.5"/><circle id="Oval" cx="23" cy="40" r="1"/><circle id="Oval" cx="24" cy="45" r="1"/></g><path id="Shape" d="m58.83 55.37c-2.7191622 2.3570604-6.2014879 3.6469423-9.8 3.63-3.9867732.0018581-7.8107922-1.5810585-10.6298668-4.4001332-2.8190747-2.8190746-4.4019913-6.6430936-4.4001332-10.6298668-.0169423-3.5985121 1.2729396-7.0808378 3.63-9.8.1779951-.2191603.4403404-.3528655.7222646-.3681046.2819243-.0152392.5571534.0894079.7577354.2881046l2.1 2.1c-4.2716262 4.3139788-4.2544724 11.2687629.0383824 15.5616176 4.2928547 4.2928548 11.2476388 4.3100086 15.5616176.0383824l2.1 2.1c.1986967.200582.3033438.4758111.2881046.7577354-.0152391.2819242-.1489443.5442695-.3681046.7222646z" fill="#f0c419"/><path id="Shape" d="m56.81 51.79c-1.578775 1.5837401-3.607704 2.6418563-5.81 3.03-.6521104.1285347-1.3153464.1921786-1.98.19h-.02c-2.5685881-.009105-5.0526792-.918523-7.02-2.57-.525162-.4185002-1.0014998-.894838-1.42-1.42-1.651477-1.9673208-2.560895-4.4514119-2.57-7.02v-.02c-.0021786-.6646536.0614653-1.3278896.19-1.98.3881437-2.202296 1.4462599-4.231225 3.03-5.81z" fill="#f3d55b"/><path id="Shape" d="m51 54.82c-.6521104.1285347-1.3153464.1921786-1.98.19h-.02l-.01-9.59-7.01 7.02c-.525162-.4185002-1.0014998-.894838-1.42-1.42l7.02-7.01-9.59-.01v-.02c-.0021786-.6646536.0614653-1.3278896.19-1.98l8.85.01 3.96 3.96z" fill="#f29c1f"/><path id="Shape" d="m13.99 40.99c-.5522847 0-1-.4477153-1-1v-2c0-5.1 2.552-7.44 4.074-8.381.4681137-.2714136 1.0672016-.1212414 1.3519408.3388884.2847391.4601298.1518258 1.0632816-.2999408 1.3611116-1.168.721-3.126 2.547-3.126 6.679v2c.0005311.2655628-.1045912.5204309-.2921852.7084-.1875939.1879692-.4422514.2936005-.7078148.2936z" fill="#805333"/><path id="Shape" d="m40.85 14-4.19 11.35c-.22-.09-.44-.18-.66-.29l-.01-.01c-.3789826-.1932325-.7737445-.3538136-1.18-.48l3.9-10.57z" fill="#df4d60"/><path id="Shape" d="m36 25.06c.22.11.44.2.66.29l-10.72 29c-.1464639.3920069-.5215275.6513593-.94.65-.1191894-.000422-.2374755-.0206996-.35-.06-.5155516-.1971494-.7780355-.7710549-.59-1.29l10.75-29.08c.4062555.1261864.8010174.2867675 1.18.48z" fill="#c03a2b"/></g></g></svg>