<svg width="20" height="20" viewBox="0 0 20 20" fill="none" xmlns="http://www.w3.org/2000/svg">
<path d="M10 0C4.47768 0 0 4.59375 0 10.2545C0 14.7857 2.86607 18.625 6.83929 19.9821C6.89502 19.9942 6.9519 20.0002 7.00893 20C7.37946 20 7.52232 19.7277 7.52232 19.4911C7.52232 19.2455 7.51339 18.6027 7.50893 17.7455C7.17814 17.8231 6.83974 17.8635 6.5 17.8661C4.57589 17.8661 4.13839 16.3705 4.13839 16.3705C3.68304 15.1875 3.02679 14.8705 3.02679 14.8705C2.15625 14.2589 3.02232 14.2411 3.08929 14.2411H3.09375C4.09821 14.3304 4.625 15.3036 4.625 15.3036C5.125 16.1786 5.79464 16.4241 6.39286 16.4241C6.78841 16.4162 7.17784 16.3249 7.53571 16.1562C7.625 15.4955 7.88393 15.0446 8.16964 14.7857C5.95089 14.5268 3.61607 13.6473 3.61607 9.71875C3.61607 8.59821 4.00446 7.68303 4.64286 6.96875C4.54018 6.70982 4.19643 5.66518 4.74107 4.25446C4.81413 4.23698 4.88921 4.22947 4.96429 4.23214C5.32589 4.23214 6.14286 4.37053 7.49107 5.30803C9.12926 4.84969 10.8618 4.84969 12.5 5.30803C13.8482 4.37053 14.6652 4.23214 15.0268 4.23214C15.1019 4.22947 15.1769 4.23698 15.25 4.25446C15.7946 5.66518 15.4509 6.70982 15.3482 6.96875C15.9866 7.6875 16.375 8.60268 16.375 9.71875C16.375 13.6562 14.0357 14.5223 11.808 14.7768C12.1652 15.0937 12.4866 15.7187 12.4866 16.6741C12.4866 18.0446 12.4732 19.1518 12.4732 19.4866C12.4732 19.7277 12.6116 20 12.9821 20C13.0421 20.0003 13.102 19.9943 13.1607 19.9821C17.1384 18.625 20 14.7812 20 10.2545C20 4.59375 15.5223 0 10 0Z" fill="black"/>
</svg>
