<svg id="Capa_1" enable-background="new 0 0 510.002 510.002" height="512" viewBox="0 0 510.002 510.002" width="512" xmlns="http://www.w3.org/2000/svg"><g id="XMLID_7_"><path id="XMLID_237_" d="m225.001 195v90l15 10 15-10 10-45-10-45c-10.492 0-19.508 0-30 0z" fill="#ffe278"/><path id="XMLID_235_" d="m510.001 272c0-42.524-34.473-77-77-77-5.023 0-172.98 0-178 0v90l127.5 10 127.5-10v-6.5z" fill="#ffc178"/><circle id="XMLID_3240_" cx="172.501" cy="232.5" fill="#ffccbd" r="52.5"/><path id="XMLID_3543_" d="m75.001 285-16.001 10-13.999-10v-135l15-10 15 10z" fill="#004c9c"/><path id="XMLID_234_" d="m105.001 405c0-10.492 0-19.508 0-30l-15-10-15 10v60h180l10-15-10-15c-10.128 0-139.871 0-150 0z" fill="#6aa9ff"/><path id="XMLID_232_" d="m435.001 435c0-7.259 0-52.693 0-60l-15-10-15 10v30c-10.128 0-139.87 0-150 0v30z" fill="#4895ff"/><path id="XMLID_1003_" d="m.001 285v90h255l10-45-10-45c-7.194 0-247.807 0-255 0z" fill="#7ed8f6"/><path id="XMLID_230_" d="m510.001 285c-7.193 0-247.807 0-255 0v90h255c0-10.889 0-79.04 0-90z" fill="#6aa9ff"/><path id="XMLID_3546_" d="m120.001 150h-120v-30l10-45-10-45v-30h120v30l-10 47 10 43z" fill="#ece6f2"/><path id="XMLID_146_" d="m120.001 120h-120v-90h120z" fill="#ff4d4d"/><path id="XMLID_144_" d="m405.001 3.607c-13.164 19.056-45 63.301-45 86.393 0 24.812 20.186 45 45 45 24.811 0 45-20.186 45-45 0-23.128-31.953-67.462-45-86.393z" fill="#ff4d4d"/><circle id="XMLID_3557_" cx="90.001" cy="465" fill="#004c9c" r="45"/><path id="XMLID_138_" d="m388.181 433.18c-17.561 17.564-17.589 46.049 0 63.64 17.561 17.561 46.051 17.591 63.64 0 17.562-17.562 17.591-46.049 0-63.64-17.559-17.561-46.05-17.59-63.64 0z" fill="#00366d"/></g></svg>