<svg width="112" height="112" viewBox="0 0 112 112" fill="none" xmlns="http://www.w3.org/2000/svg">
<path d="M98.5249 58.4501L96.4249 26.7751L81.8999 35.7001C74.7249 34.4751 72.7999 34.4751 67.1999 31.6751C63.8749 30.1001 59.6749 31.1501 57.5749 32.3751C54.4249 29.0501 33.9499 33.9501 31.6749 35.0001C25.5499 33.2501 16.4499 26.0751 16.4499 26.0751L13.2999 61.9501L17.4999 63.0001C17.8499 64.2251 18.8999 67.2001 18.8999 67.2001C15.0499 72.1001 19.5999 77.8751 23.9749 75.9501C22.0499 80.8501 27.1249 85.4001 31.1499 82.2501C30.6249 86.8001 35.3499 90.1251 38.8499 86.9751C37.2749 92.4001 43.3999 96.4251 47.0749 92.0501C49.6999 93.8001 52.1499 95.2001 54.2499 95.9001C57.9249 97.4751 61.9499 93.9751 61.2499 89.6001C65.4499 94.5001 71.7499 89.7751 70.3499 84.3501C75.0749 88.0251 80.8499 81.9001 77.8749 76.4751C83.1249 79.4501 87.6749 71.4001 82.5999 66.1501L98.5249 58.4501" fill="#FED0AC"/>
<path d="M24.325 63.525C26.95 64.75 28.7 68.775 25.9 72.275L24.675 73.675C23.275 75.425 21.875 75.95 20.475 75.95C21.525 76.475 22.75 76.475 23.975 75.95C24.15 75.425 24.5 74.725 25.025 74.2L26.25 72.8C26.95 71.925 27.825 71.225 28.525 70.875C29.925 67.2 27.475 63.7 24.325 63.525" fill="#E0A372"/>
<path d="M44.45 80.85C47.25 81.55 49.35 85.225 47.25 89.25L46.2 90.825C45.15 92.75 43.75 93.625 42.35 93.8C44.275 94.325 46.375 93.625 47.775 91L48.825 89.425C51.275 84.525 47.95 80.5 44.45 80.85" fill="#E0A372"/>
<path d="M32.025 79.4501L34.825 75.0751C34.65 72.6251 32.55 70.5251 30.45 70.3501C33.075 71.5751 34.825 75.6001 32.025 79.1001L30.8 80.5001C29.4 82.2501 28 82.7751 26.425 82.7751C27.825 83.4751 29.4 83.3001 30.9751 82.2501C31.1501 81.3751 31.5 80.3251 32.025 79.4501" fill="#E0A372"/>
<path d="M39.55 71.575C42.35 72.45 44.275 76.3 41.825 80.15L38.5 85.4C37.275 87.325 35.875 88.025 34.475 88.025C36.225 88.55 38.5 88.025 40.075 85.575L43.4 80.325C46.2 75.775 43.05 71.4 39.55 71.575Z" fill="#E0A372"/>
<path d="M62.8249 75.9501C62.9999 75.9501 65.0999 75.6001 65.7999 75.6001C63.1749 72.9751 58.9749 75.075 56.5249 73.675C58.2749 76.65 61.9499 75.9501 62.2999 75.9501L66.4999 81.3751C69.9999 85.7501 67.1999 90.8251 63.5249 91.3501C67.3749 92.5751 71.2249 88.55 69.9999 84.175C69.8249 84 62.8249 75.9501 62.8249 75.9501" fill="#E0A372"/>
<path d="M67.0249 65.8001C67.0249 65.8001 69.6499 65.2751 71.9249 65.2751C69.2999 63.1751 65.2749 65.1001 62.6499 63.3501C63.6999 65.6251 65.9749 65.6251 66.6749 65.6251L74.7249 74.9001C78.3999 79.1001 75.7749 84.1751 72.0999 85.0501C76.2999 86.2751 80.3249 80.8501 77.6999 76.1251C75.9499 75.6001 67.0249 65.8001 67.0249 65.8001" fill="#E0A372"/>
<path d="M61.425 85.9251C58.8 83.8251 55.125 85.4001 53.55 84.3501C54.425 86.8001 57.75 86.2751 57.925 86.2751C60.9 90.8251 57.75 95.5501 54.075 95.9001C57.75 97.4751 61.7751 93.9751 61.0751 89.6001C60.9001 89.4251 58.4501 86.2751 58.4501 86.2751C58.8001 86.1001 60.725 85.9251 61.425 85.9251" fill="#E0A372"/>
<path d="M96.6 55.475C96.6 55.475 93.625 61.6 82.075 64.925C80.5 63 77.175 59.15 73.325 55.825C75.775 55.3 77 53.375 78.925 53.025C78.225 52.325 75.775 52.675 73.85 53.375C70.35 54.6 62.3 49 62.3 49L55.65 49.875C50.925 54.425 40.775 56.875 40.25 49.875C39.9 44.975 50.575 41.65 53.9 38.5C58.1 34.475 61.775 29.4 68.6 32.9C74.2 35.7 76.475 35.525 84.175 36.925C86.8 37.45 88.55 38.675 90.475 41.3C88.9 37.625 86.625 36.05 83.825 35.525L96.075 29.75L96.25 26.775L81.725 35C75.075 33.95 72.625 33.95 67.2 31.325C63.7 29.575 60.9 30.1 58.625 31.5C54.425 29.05 51.975 29.575 50.4 29.925C45.5 31.5 37.625 31.675 30.625 34.475C31.85 34.825 33.075 35.175 33.95 35.175C40.775 33.075 47.95 33.25 51.275 32.025C52.325 31.675 54.425 31.675 56.7 32.9C55.3 34.125 54.075 35.525 52.675 36.925C49.35 40.075 39.2 44.625 39.9 50.4C40.25 53.2 44.1 60.55 56.875 52.325L62.3 51.625C62.3 51.625 72.275 56.35 81.55 67.2C85.225 71.4 82.95 75.95 79.275 77C84 77.875 88.025 71.225 83.475 66.675L94.5 60.725L96.6 55.475" fill="#E0A372"/>
<path d="M93.45 28.525L99.225 58.45L94.5 60.55C92.05 54.075 88.375 38.5 89.25 30.975L93.45 28.525" fill="#3B946F"/>
<path d="M19.4249 66.5C18.5499 64.4 18.0249 61.6 18.0249 61.6L13.6499 58.625L13.2999 61.95L17.1499 63C17.6749 64.75 18.1999 66.15 18.8999 67.2L19.4249 66.5Z" fill="#E0A372"/>
<path d="M10.6749 61.4251L20.1249 28.7001L24.4999 31.6751C25.1999 36.5751 17.1499 58.9751 14.1749 62.3001L10.6749 61.4251Z" fill="#3B946F"/>
<path d="M93.275 28.35C91.875 29.225 96.95 59.5 99.05 58.625C105.7 55.65 108.675 54.775 108.675 54.775V18.725C108.5 18.725 104.475 21.7 93.275 28.35Z" fill="#47B892"/>
<path d="M3.5 15.75V60.375C3.5 60.375 6.65 60.9 10.675 61.775C12.95 62.3 21.175 29.4 20.65 28.875C14.7 24.85 3.5 15.75 3.5 15.75Z" fill="#47B892"/>
</svg>
