<?xml version="1.0" encoding="iso-8859-1"?>
<!-- Generator: Adobe Illustrator 19.0.0, SVG Export Plug-In . SVG Version: 6.00 Build 0)  -->
<svg version="1.1" id="Layer_1" xmlns="http://www.w3.org/2000/svg" xmlns:xlink="http://www.w3.org/1999/xlink" x="0px" y="0px"
	 viewBox="0 0 512 512" style="enable-background:new 0 0 512 512;" xml:space="preserve">
<g>
	<path style="fill:#706B63;" d="M490.434,89.586c-4.054-4.054-10.626-4.054-14.681,0l-2.447,2.447l-26.669-26.67l-14.68,14.68
		l26.67,26.67l-2.447,2.447c-4.054,4.054-4.054,10.626,0,14.681c4.054,4.054,10.626,4.054,14.681,0l19.574-19.574
		C494.488,100.212,494.488,93.64,490.434,89.586z"/>
	<path style="fill:#706B63;" d="M418.254,93.745c-4.054-4.054-4.054-10.626,0-14.681l31.808-31.808
		c4.054-4.054,10.626-4.054,14.681,0c4.054,4.054,4.054,10.626,0,14.681l-31.808,31.808
		C428.88,97.799,422.308,97.799,418.254,93.745z"/>
	<path style="fill:#706B63;" d="M481.382,44.32l-6.851-6.851h-19.574v19.574l6.851,6.851c4.324,4.324,11.334,4.324,15.66,0
		l3.914-3.914C485.706,55.655,485.706,48.644,481.382,44.32z"/>
</g>
<path style="fill:#848075;" d="M467.679,30.618c-4.324-4.324-11.334-4.324-15.66,0l-3.914,3.914c-4.324,4.324-4.324,11.336,0,15.66
	l6.851,6.851l19.574-19.574L467.679,30.618z"/>
<path style="fill:#8D472E;" d="M503.892,27.682l-9.787-9.787h-19.574l-9.787,29.361l19.574,19.574
	c5.405,5.405,14.169,5.405,19.574,0l0,0C514.703,56.02,514.701,38.493,503.892,27.682z"/>
<path style="fill:#BD7155;" d="M484.318,8.108c-10.81-10.81-28.338-10.811-39.148,0l0,0c-5.405,5.405-5.405,14.169,0,19.574
	l19.574,19.574l29.361-29.361L484.318,8.108z"/>
<path style="fill:#AB5034;" d="M459.849,42.363l9.787,9.787c5.405,5.405,14.169,5.405,19.574,0l14.724-14.724
	c2.676-2.675,2.678-7.013,0.007-9.693l-0.05-0.051L484.318,8.108l-0.051-0.051c-2.68-2.671-7.016-2.669-9.693,0.007l-14.724,14.724
	C454.444,28.194,454.444,36.957,459.849,42.363z"/>
<path style="opacity:0.2;fill:#493023;enable-background:new    ;" d="M508.144,61.295l-14.039-14.039
	c-2.702,2.702-7.084,2.703-9.787,0l-19.574-19.574c-2.703-2.703-2.702-7.085,0-9.787L450.705,3.856
	c-1.971,1.163-3.842,2.559-5.535,4.252c-5.405,5.405-5.405,14.169,0,19.574l19.574,19.574l19.574,19.574
	c5.405,5.405,14.169,5.405,19.574,0C505.584,65.137,506.981,63.266,508.144,61.295z"/>
<path style="fill:#7C9554;" d="M425.594,86.404H406.02l-19.574,39.148l36.67,2.478l12.265-12.265c5.405-5.405,5.405-14.169,0-19.574
	L425.594,86.404z"/>
<polygon style="fill:#A0BC72;" points="425.594,86.404 415.807,76.617 397.212,83.468 385.188,107.236 386.446,125.553 "/>
<path style="fill:#89AB58;" d="M396.233,76.617L383.93,88.92l1.258,18.316l30.619-30.619l0,0
	C410.402,71.212,401.638,71.212,396.233,76.617z"/>
<path style="fill:#7C9554;" d="M423.117,128.031L383.93,88.92c-42.741-25.02-98.872-18.573-135.487,18.042L24.324,331.082
	c-32.432,32.432-32.431,85.013,0,117.445l39.148,39.148c32.432,32.432,85.013,32.432,117.445,0l225.104-225.104
	C442.502,226.091,448.191,170.493,423.117,128.031z"/>
<path style="fill:#89AB58;" d="M23.578,331.867c-4.927,29.685,4.032,61.226,26.932,84.126l28.957,28.957
	c10.658,10.658,27.421,12.519,39.943,4.13c0.082-0.055,0.163-0.111,0.246-0.165c4.347-2.934,8.478-6.325,12.325-10.173
	l225.104-225.105c0.723-0.723,1.433-1.452,2.13-2.188c67.028-70.761-36.043-173.75-107.582-107.555
	c-1.078,0.998-2.141,2.021-3.189,3.069l-224.12,224.12c-1.261,1.261-2.455,2.563-3.618,3.882
	C21.632,333.914,22.59,332.881,23.578,331.867z"/>
<circle style="fill:#A0BC72;" cx="298.358" cy="135.338" r="41.523"/>
<rect x="99.553" y="177.158" transform="matrix(0.7071 0.7071 -0.7071 0.7071 274.9424 -60.3171)" style="fill:#ADA999;" width="221.455" height="249.137"/>
<rect x="109.678" y="152.685" transform="matrix(0.7071 0.7071 -0.7071 0.7071 250.4685 -50.1772)" style="fill:#D5D2BD;" width="152.25" height="249.137"/>
<rect x="153.239" y="147.798" transform="matrix(0.7071 0.7071 -0.7071 0.7071 245.5827 -48.1557)" style="fill:#E7E4CD;" width="55.364" height="249.137"/>
<g>
	<path style="fill:#63684D;" d="M161.344,306.614c-14.84-14.84-14.84-38.989,0-53.829c14.84-14.84,38.989-14.84,53.829,0
		c14.84,14.84,14.84,38.989,0,53.829C200.332,321.454,176.184,321.454,161.344,306.614z M200.492,267.466
		c-6.746-6.746-17.722-6.746-24.468,0c-6.746,6.746-6.746,17.722,0,24.468c6.746,6.746,17.722,6.746,24.468,0
		S207.238,274.212,200.492,267.466z"/>
	<path style="fill:#63684D;" d="M224.96,370.23l-24.468-24.468c-3.059-3.059-3.9-7.697-2.111-11.636
		c1.791-3.939,5.837-6.354,10.154-6.061l37.967,2.58c1.175,0.079,3.435-0.076,5.372-2.011c2.698-2.698,2.698-7.089,0-9.787
		s-7.089-2.698-9.787,0c-4.054,4.054-10.626,4.054-14.681,0s-4.054-10.626,0-14.681c10.793-10.793,28.355-10.793,39.148,0
		c10.793,10.793,10.793,28.355,0,39.148c-5.654,5.654-13.476,8.586-21.459,8.044l-10.349-0.703l4.894,4.894
		c4.054,4.054,4.054,10.626,0,14.681C235.586,374.285,229.014,374.285,224.96,370.23z"/>
</g>
<g>
</g>
<g>
</g>
<g>
</g>
<g>
</g>
<g>
</g>
<g>
</g>
<g>
</g>
<g>
</g>
<g>
</g>
<g>
</g>
<g>
</g>
<g>
</g>
<g>
</g>
<g>
</g>
<g>
</g>
</svg>
