<svg width="15" height="15" viewBox="0 0 15 15" fill="none" xmlns="http://www.w3.org/2000/svg">
<path d="M14.175 10.3167C13.15 10.3167 12.1583 10.15 11.2333 9.85C10.9417 9.75 10.6167 9.825 10.3917 10.05L9.08333 11.6917C6.725 10.5667 4.51667 8.44167 3.34167 6L4.96667 4.61667C5.19167 4.38333 5.25833 4.05833 5.16667 3.76667C4.85833 2.84167 4.7 1.85 4.7 0.825C4.7 0.375 4.325 0 3.875 0H0.991667C0.541667 0 0 0.2 0 0.825C0 8.56667 6.44167 15 14.175 15C14.7667 15 15 14.475 15 14.0167V11.1417C15 10.6917 14.625 10.3167 14.175 10.3167Z" fill="#878787"/>
</svg>
