<svg width="17" height="17" viewBox="0 0 17 17" fill="none" xmlns="http://www.w3.org/2000/svg">
<path d="M15.1008 14.186L10.7894 9.87461C11.4584 9.00967 11.8203 7.95215 11.8203 6.83984C11.8203 5.5084 11.3007 4.25996 10.361 3.31865C9.42139 2.37734 8.16963 1.85938 6.83984 1.85938C5.51006 1.85938 4.2583 2.379 3.31865 3.31865C2.37734 4.2583 1.85938 5.5084 1.85938 6.83984C1.85938 8.16963 2.379 9.42139 3.31865 10.361C4.2583 11.3023 5.5084 11.8203 6.83984 11.8203C7.95215 11.8203 9.00801 11.4584 9.87295 10.791L14.1844 15.1008C14.197 15.1134 14.212 15.1235 14.2285 15.1303C14.2451 15.1372 14.2628 15.1407 14.2807 15.1407C14.2985 15.1407 14.3163 15.1372 14.3328 15.1303C14.3493 15.1235 14.3643 15.1134 14.377 15.1008L15.1008 14.3786C15.1134 14.366 15.1235 14.351 15.1303 14.3344C15.1372 14.3179 15.1407 14.3002 15.1407 14.2823C15.1407 14.2644 15.1372 14.2467 15.1303 14.2302C15.1235 14.2137 15.1134 14.1987 15.1008 14.186V14.186ZM9.46953 9.46953C8.76563 10.1718 7.83262 10.5586 6.83984 10.5586C5.84707 10.5586 4.91406 10.1718 4.21016 9.46953C3.50791 8.76563 3.12109 7.83262 3.12109 6.83984C3.12109 5.84707 3.50791 4.9124 4.21016 4.21016C4.91406 3.50791 5.84707 3.12109 6.83984 3.12109C7.83262 3.12109 8.76729 3.50625 9.46953 4.21016C10.1718 4.91406 10.5586 5.84707 10.5586 6.83984C10.5586 7.83262 10.1718 8.76729 9.46953 9.46953Z" fill="#C4C4C4"/>
</svg>
