<svg id="Layer_1" height="512" viewBox="0 0 512 512" width="512" xmlns="http://www.w3.org/2000/svg" data-name="Layer 1"><path d="m381.93 489.87c-17.43-21.35-47.57-43.29-80.66-63.32-60.22-36.47-130.24-66.63-151.4-75.46a5.347 5.347 0 0 0 -3.91-.09 4.322 4.322 0 0 0 -.69.32 5.313 5.313 0 0 0 -2.77 3.96l-.76.71a45.277 45.277 0 0 0 -7.6 56.04l167.74 85.26v.08l75.8 1.31a5.4 5.4 0 0 0 4.25-8.81z" fill="#d4e1f4"/><path d="m145.94 350.96.02.04a4.322 4.322 0 0 0 -.69.32l-.01-.02c-35.83-35.92-57.49-85.91-60.59-136.62q-1.38-22.725-2.78-45.47c-1.65-10.95-5.97-48.77 16.72-87.52.88-1.52 1.78-2.99 2.7-4.43 21.84-34.14 59.57-54.75 100.01-55.7l123.38-2.87c22.87-.54 39.67 18.17 39.67 38.82a38.685 38.685 0 0 1 -4.45 17.93l-9.23 4.77-39.18 20.24a77.124 77.124 0 0 0 -40.84 57.11l-6.04 69.88a56.764 56.764 0 0 1 -1.81 7.71c-9.13 29.31-26.73 52.6-51.2 70.96-1.8 1.36-3.65 2.69-5.53 3.99-27.88 19.31-55.83 39.22-60.15 40.86z" fill="#6d7486"/><path d="m301.88 497.29v.08l-226.59-3.91a5.378 5.378 0 0 1 -5.29-5.41 5.3 5.3 0 0 1 1.04-3.15q14.07-19.32 29.87-37.57 15.78-18.225 33.23-35.3l.73.06c23.02 9.61 103.87 44.46 167.01 85.2z" fill="#ccd3df"/><path d="m393.48 212.03a20.958 20.958 0 0 0 -8.45-17.37l-17.85-13.24 15.56-14.38a11.582 11.582 0 0 0 3.3-11.74 184.927 184.927 0 0 0 -14.07-34.66l-21.28-40.43-39.18 20.24a77.124 77.124 0 0 0 -40.84 57.11l-6.04 69.88a56.764 56.764 0 0 1 -1.81 7.71c-9.13 29.31-26.73 52.6-51.2 70.96-1.8 1.36-3.65 2.69-5.53 3.99-27.88 19.31-55.83 39.22-60.15 40.86l.02.04a5.347 5.347 0 0 1 3.91.09c21.16 8.83 91.18 38.99 151.4 75.46-.84-17.4-1.83-35.68-2.8-53.82l95-160.45z" fill="#f6e4d5"/><path d="m441.85 335.22.15 149.46h-25.9l-.19-145.41a11.87 11.87 0 0 0 -1.6-5.91c-3.85-6.7-13-8-18.92-3.05l-20.53 17.14a12.266 12.266 0 0 0 -2.52 2.81 39.6 39.6 0 0 1 -2.34 3.31l-.09-.07c-10.63-11.61-13.39-31.79-5.62-50.99 6.64-16.4 19.31-27.95 32.65-31.53l.1-.02a45.072 45.072 0 0 0 3.17 10.06l1.09 2.43a46.637 46.637 0 0 0 22.37 22.65 32.428 32.428 0 0 1 18.18 29.12z" fill="#75d2fc"/><path d="m397.04 270.96-.1.02c-13.34 3.58-26.01 15.13-32.65 31.53-7.77 19.2-5.01 39.38 5.62 50.99l.09.07a41.256 41.256 0 0 1 -2.9 3.32 22.754 22.754 0 0 1 -4.84 4.01c-7.82 4.24-16.33 6.81-21.75 8.49a80.531 80.531 0 0 1 -20.87 3.59l-.01-.11c-1.98-7.62-15.15-48.86 9.58-90.01 22.05-36.67 56.44-43.76 65.18-46.48l.37-.02 1.53 28.48a44.865 44.865 0 0 0 .75 6.12z" fill="#43a2ff"/><path d="m393.47 212.28 1.29 24.08-.37.02c-8.74 2.72-43.13 9.81-65.18 46.48-24.73 41.15-11.56 82.39-9.58 90.01l.01.11c-1.09.05-2.18.07-3.27.07l-17.49-.34-.41.02c-.69-12.91-1.37-25.74-1.96-38.13a107.313 107.313 0 0 1 8.21-50.94c.1-.25.21-.51.32-.76a106.864 106.864 0 0 1 53.87-54.88z" fill="#75d2fc"/><path d="m149.87 351.09a5.347 5.347 0 0 0 -3.91-.09 4.322 4.322 0 0 0 -.69.32 5.313 5.313 0 0 0 -2.77 3.96l-.76.71a45.277 45.277 0 0 0 -7.6 56.04l30 13a45.277 45.277 0 0 1 7.6-56.04l.76-.71a5.313 5.313 0 0 1 2.77-3.96 4.236 4.236 0 0 1 .69-.32 5.343 5.343 0 0 1 3.818.061c-13.206-5.92-23.678-10.371-29.908-12.971z" fill="#b8c4d1"/><path d="m114.67 214.68q-1.38-22.725-2.78-45.47c-1.65-10.95-5.97-48.77 16.72-87.52.88-1.52 1.78-2.99 2.7-4.43 21.84-34.14 59.57-54.75 100.01-55.7h-30c-40.44.95-78.17 21.56-100.01 55.7-.92 1.44-1.82 2.91-2.7 4.43-22.69 38.75-18.37 76.57-16.72 87.52q1.395 22.74 2.78 45.47c3.1 50.71 24.76 100.7 60.59 136.62l.01.02a4.322 4.322 0 0 1 .69-.32l-.02-.04c1.959-.744 8.786-5.251 18.252-11.748-29.202-34.618-46.756-79.284-49.522-124.532z" fill="#565d68"/><path d="m164.14 425.026.69.056c-13.23-5.926-23.722-10.388-29.96-12.992l-.73-.06q-17.43 17.055-33.23 35.3t-29.87 37.57a5.3 5.3 0 0 0 -1.04 3.15 5.378 5.378 0 0 0 5.29 5.41l28.684.5q12.786-17.239 26.936-33.629 15.78-18.231 33.23-35.305z" fill="#aeb6c1"/><g fill="#b0b5ca"><path d="m117.031 128.457a6.008 6.008 0 0 1 -5.8-7.56 104.125 104.125 0 0 1 10.673-25.569 6 6 0 0 1 10.356 6.063 92.085 92.085 0 0 0 -9.44 22.622 6 6 0 0 1 -5.789 4.444z"/><path d="m137.218 90.309a6 6 0 0 1 -4.49-9.978 95.522 95.522 0 0 1 69.221-31.773 6 6 0 1 1 .28 12 83.5 83.5 0 0 0 -60.517 27.732 5.985 5.985 0 0 1 -4.494 2.019z"/><path d="m222.975 59.021a6 6 0 0 1 -.138-12l57.493-1.342a6 6 0 1 1 .28 12l-57.493 1.341z"/></g></svg>