<svg width="16" height="16" viewBox="0 0 16 16" fill="none" xmlns="http://www.w3.org/2000/svg">
<path fill-rule="evenodd" clip-rule="evenodd" d="M3.889 3.095C4.5988 2.62079 5.39504 2.29104 6.23228 2.12456C7.06951 1.95808 7.93134 1.95813 8.76855 2.12472C9.60577 2.29131 10.402 2.62117 11.1117 3.09547C11.8214 3.56976 12.4308 4.1792 12.905 4.889C13.3792 5.59879 13.709 6.39504 13.8754 7.23227C14.0419 8.06951 14.0419 8.93134 13.8753 9.76855C13.7087 10.6058 13.3788 11.402 12.9045 12.1117C12.4302 12.8214 11.8208 13.4308 11.111 13.905C9.67746 14.8574 7.9247 15.2024 6.23715 14.8643C4.5496 14.5262 3.06502 13.5326 2.10902 12.1015C1.15302 10.6703 0.803638 8.91843 1.13751 7.23003C1.47138 5.54164 2.46125 4.05458 3.89 3.095H3.889ZM4.444 13.073C5.04418 13.4866 5.72058 13.7767 6.43389 13.9266C7.14719 14.0765 7.88317 14.0831 8.59904 13.946C9.31491 13.8089 9.99641 13.5309 10.6039 13.1282C11.2114 12.7254 11.7328 12.206 12.1377 11.5999C12.5427 10.9939 12.8232 10.3134 12.9629 9.59806C13.1025 8.8827 13.0986 8.1467 12.9513 7.43285C12.8041 6.71901 12.5164 6.04156 12.105 5.43987C11.6936 4.83819 11.1667 4.32427 10.555 3.928C9.34214 3.14793 7.87143 2.87541 6.45959 3.16913C5.04776 3.46285 3.80776 4.29931 3.00664 5.49837C2.20552 6.69743 1.90737 8.16316 2.1764 9.57991C2.44543 10.9967 3.26011 12.2511 4.445 13.073H4.444ZM8 5H7V10H8V5ZM8 11H7V12H8V11Z" fill="white"/>
</svg>
