<svg width="20" height="20" viewBox="0 0 20 20" fill="none" xmlns="http://www.w3.org/2000/svg">
<path fill-rule="evenodd" clip-rule="evenodd" d="M4.86126 3.86875C5.74851 3.276 6.74381 2.8638 7.79036 2.6557C8.8369 2.4476 9.91418 2.44767 10.9607 2.65591C12.0072 2.86414 13.0025 3.27647 13.8896 3.86934C14.7768 4.4622 15.5385 5.22401 16.1313 6.11125C16.724 6.9985 17.1362 7.9938 17.3443 9.04035C17.5524 10.0869 17.5523 11.1642 17.3441 12.2107C17.1359 13.2572 16.7235 14.2525 16.1307 15.1396C15.5378 16.0268 14.776 16.7885 13.8888 17.3813C12.0968 18.5718 9.90588 19.003 7.79644 18.5804C5.687 18.1578 3.83128 16.9158 2.63628 15.1268C1.44128 13.3379 1.00455 11.148 1.42189 9.03755C1.83923 6.92705 3.07656 5.06823 4.86251 3.86875H4.86126ZM5.55501 16.3413C6.30524 16.8582 7.15074 17.2209 8.04237 17.4083C8.93399 17.5956 9.85397 17.6038 10.7488 17.4325C11.6437 17.2612 12.4955 16.9137 13.2549 16.4102C14.0143 15.9068 14.666 15.2574 15.1722 14.4999C15.6784 13.7424 16.029 12.8918 16.2036 11.9976C16.3782 11.1034 16.3733 10.1834 16.1892 9.29107C16.0051 8.39877 15.6455 7.55195 15.1313 6.79984C14.617 6.04774 13.9584 5.40534 13.1938 4.91C11.6777 3.93492 9.83929 3.59427 8.0745 3.96142C6.30971 4.32857 4.75971 5.37414 3.75831 6.87297C2.75691 8.37179 2.38422 10.204 2.7205 11.9749C3.05679 13.7458 4.07515 15.3138 5.55626 16.3413H5.55501ZM10 6.25H8.75001V12.5H10V6.25ZM10 13.75H8.75001V15H10V13.75Z" fill="white"/>
</svg>
